<?xml version="1.0" encoding="UTF-8" standalone="no"?>
<!-- Created with Inkscape (http://www.inkscape.org/) -->

<svg
   xmlns:dc="http://purl.org/dc/elements/1.1/"
   xmlns:cc="http://creativecommons.org/ns#"
   xmlns:rdf="http://www.w3.org/1999/02/22-rdf-syntax-ns#"
   xmlns:svg="http://www.w3.org/2000/svg"
   xmlns="http://www.w3.org/2000/svg"
   xmlns:sodipodi="http://sodipodi.sourceforge.net/DTD/sodipodi-0.dtd"
   xmlns:inkscape="http://www.inkscape.org/namespaces/inkscape"
   width="139"
   height="139"
   id="svg2"
   version="1.1"
   inkscape:version="0.48.4 r9939"
   sodipodi:docname="flag.svg">
  <defs
     id="defs4" />
  <sodipodi:namedview
     id="base"
     pagecolor="#ffffff"
     bordercolor="#666666"
     borderopacity="1.0"
     inkscape:pageopacity="0.0"
     inkscape:pageshadow="2"
     inkscape:zoom="2.8284271"
     inkscape:cx="127.62549"
     inkscape:cy="99.298913"
     inkscape:document-units="px"
     inkscape:current-layer="layer1"
     showgrid="false"
     inkscape:window-width="1600"
     inkscape:window-height="824"
     inkscape:window-x="0"
     inkscape:window-y="24"
     inkscape:window-maximized="1" />
  <metadata
     id="metadata7">
    <rdf:RDF>
      <cc:Work
         rdf:about="">
        <dc:format>image/svg+xml</dc:format>
        <dc:type
           rdf:resource="http://purl.org/dc/dcmitype/StillImage" />
        <dc:title />
      </cc:Work>
    </rdf:RDF>
  </metadata>
  <g
     inkscape:label="Layer 1"
     inkscape:groupmode="layer"
     id="layer1"
     transform="translate(0,-913.36218)">
    <rect
       style="fill:#008000;stroke:#000000;stroke-width:0;stroke-miterlimit:4;stroke-opacity:1;stroke-dasharray:none"
       id="rect3800"
       width="141"
       height="141"
       x="-1"
       y="912.36218"
       ry="55.158035"
       rx="0" />
    <path
       style="fill:none;stroke:#ff0000;stroke-width:0.30000001px;stroke-linecap:butt;stroke-linejoin:miter;stroke-opacity:1"
       d="m 61.85,928.26218 c 79.95,19.2 6,34.2 71.85,44.55"
       id="path2990"
       inkscape:connector-curvature="0"
       sodipodi:nodetypes="cc" />
    <path
       style="fill:none;stroke:#000000;stroke-width:0.30000001px;stroke-linecap:butt;stroke-linejoin:miter;stroke-opacity:1"
       d="m 46.775,959.08718 c 79.95,19.2 6,34.2 71.85,44.55002"
       id="path2990-2"
       inkscape:connector-curvature="0"
       sodipodi:nodetypes="cc" />
    <path
       style="fill:none;stroke:#000000;stroke-width:0.30000001px;stroke-linecap:butt;stroke-linejoin:miter;stroke-opacity:1"
       d="m 62.3,929.31218 c 78.75,42.6 -9.49394,41.45304 56.05606,74.15302"
       id="path3778"
       inkscape:connector-curvature="0"
       sodipodi:nodetypes="cc" />
    <path
       style="fill:none;stroke:#ff0000;stroke-width:0.29516891px;stroke-linecap:butt;stroke-linejoin:miter;stroke-opacity:1"
       d="m 118.4987,1003.557 15.05626,-30.72422"
       id="path3780"
       inkscape:connector-curvature="0"
       sodipodi:nodetypes="cc" />
    <path
       style="fill:#ff0000;stroke:#ff0000;stroke-width:0.44999999;stroke-linecap:butt;stroke-miterlimit:4;stroke-opacity:1;stroke-dasharray:none"
       d="m 115.32246,1001.6383 c -10.91079,-5.73028 -17.60482,-10.64283 -20.71837,-15.20455 -2.36037,-3.45823 -2.78274,-6.70634 -1.40554,-10.80894 0.20306,-0.60493 0.97033,-2.47631 1.70502,-4.15862 1.52253,-3.48627 1.99947,-4.80644 2.35146,-6.50874 0.70958,-3.43166 0.30756,-6.24191 -1.37241,-9.59353 -0.86423,-1.7242 -1.85663,-3.15287 -3.59577,-5.1765 -4.71005,-5.48055 -13.82427,-12.08938 -26.27038,-19.04898 -1.67348,-0.93577 -3.06965,-1.74503 -3.10261,-1.79836 -0.033,-0.0533 10e-4,-0.19498 0.0757,-0.31479 0.11511,-0.18492 0.52737,-0.11836 2.72761,0.44034 21.63968,5.49495 33.32409,11.35298 36.18035,18.13916 0.81319,1.93204 0.89751,2.60236 0.90925,7.22766 0.008,3.09025 0.067,4.48285 0.21347,5.025 1.29765,4.80306 6.25294,7.82031 17.34314,10.56016 2.59162,0.64026 8.29082,1.7856 10.94578,2.19972 0.9075,0.14156 1.70247,0.30371 1.7666,0.36035 0.0641,0.0566 -3.21487,6.89044 -7.28668,15.18623 l -7.40329,15.08329 -3.06331,-1.6089 0,0 z"
       id="path3785"
       inkscape:connector-curvature="0" />
    <path
       style="fill:#000000;stroke:#000000;stroke-width:0.44999999;stroke-linecap:butt;stroke-miterlimit:4;stroke-opacity:1;stroke-dasharray:none"
       d="m 113.90914,1002.6148 c -9.98078,-1.82 -16.7578,-3.86332 -20.74894,-6.25603 -1.75708,-1.05338 -3.57418,-2.86642 -4.18568,-4.17632 -0.74725,-1.60069 -0.82006,-2.1939 -0.8521,-6.94215 -0.0245,-3.62249 -0.0741,-4.53899 -0.28637,-5.28285 -1.07092,-3.75337 -3.62539,-6.66148 -8.45469,-9.62516 -5.75056,-3.52906 -15.4678,-7.10766 -27.84829,-10.2558 -1.88434,-0.47915 -3.45751,-0.90262 -3.49593,-0.94105 -0.0543,-0.0543 14.39524,-29.13104 14.57301,-29.32506 0.0759,-0.0828 6.49307,3.56239 9.6531,5.48332 18.19584,11.06105 25.9044,19.8598 24.78284,28.28782 -0.25157,1.89048 -0.78172,3.59099 -1.99555,6.40093 -2.66745,6.17503 -3.01456,7.31917 -3.02622,9.975 -0.009,2.00736 0.24894,3.08439 1.18463,4.95 2.59232,5.16863 9.19804,10.3826 21.22519,16.75325 1.52625,0.8085 2.64,1.4647 2.475,1.4582 -0.165,-0.01 -1.515,-0.2333 -3,-0.5041 z"
       id="path3791"
       inkscape:connector-curvature="0" />
    <path
       style="fill:#000000;stroke:#000000;stroke-width:0.01988738;stroke-linecap:butt;stroke-miterlimit:4;stroke-opacity:1;stroke-dasharray:none"
       d="m 117.42862,1003.291 c -0.16772,-0.027 -0.27972,0.148 -0.28131,0.1464 -0.002,-10e-4 -0.28415,-0.074 -0.27143,-0.087 0.0428,-0.046 -0.27212,-0.7535 0.0122,-0.4588 -0.0115,-0.037 0.25194,0.1375 0.2532,0.1367 0.001,-9e-4 0.14251,-0.01 0.31388,0.076 0.17136,0.087 1.08635,0.5418 0.95791,0.5282 0.0373,0.079 -0.6775,-0.082 -0.84522,-0.1098 z"
       id="path3793"
       inkscape:connector-curvature="0"
       sodipodi:nodetypes="cccccsccc" />
    <path
       style="fill:none;stroke:#000000;stroke-width:2.59439993;stroke-linecap:round;stroke-linejoin:miter;stroke-miterlimit:4;stroke-opacity:1;stroke-dasharray:none"
       d="M 7.38799,1037.1771 62.25635,927.37313"
       id="path3782"
       inkscape:connector-curvature="0" />
  </g>
</svg>
